<svg xmlns="http://www.w3.org/2000/svg" viewBox="0 0 691.25 198"><defs><style>.cls-1{fill:#333;}.cls-2{fill:#39b54a;}</style></defs><g id="Layer_2" data-name="Layer 2"><g id="Layer_1-2" data-name="Layer 1"><path class="cls-1" d="M42.82,83.89a13.18,13.18,0,0,1-1.62-6.31,13.43,13.43,0,0,1,1.53-6.19L58.5,44a11.17,11.17,0,0,1,4-4.2A12.39,12.39,0,0,1,69,37.81h39.13L130,0H52A19.93,19.93,0,0,0,35.32,9.09L6.25,59.72a44.86,44.86,0,0,0-.1,45.51v0l31.49,54.25,19-32.71a20,20,0,0,0,.24-18.6Z"/><path class="cls-2" d="M103.36,114.11a13.23,13.23,0,0,1,.08,12.5L87.68,154.06a11.28,11.28,0,0,1-4,4.19,12.43,12.43,0,0,1-6.59,1.95l-39.13,0L16.15,198H94.23a19.93,19.93,0,0,0,16.63-9.09l29.08-50.63A44.91,44.91,0,0,0,140,92.76v0L108.54,38.48,89.49,71.19a20,20,0,0,0-.25,18.6Z"/><path d="M189.89,93.3l12.63-8.87C206,90,211,92.52,217.78,92.52c7.41,0,12.39-3,12.39-7.22,0-5.75-9.41-10.28-17.65-14.38C203.69,66.53,194,61.71,194,49.17c0-13.6,11.51-22.57,25.94-22.57,10.72,0,19.6,4.44,23.16,13.94l-11.66,8.15a12.12,12.12,0,0,0-11.26-6.59c-5.9,0-10.29,3.42-10.29,7.46,0,4.69,6,6.29,15,10.54,13,6.14,21.21,12.77,21.21,24.86,0,14.34-11.7,23.45-28.52,23.45C204.67,108.41,195.16,103.05,189.89,93.3Z"/><path d="M252.2,67.6c0-22.18,18.68-40.95,40.81-40.95,10.24.14,19.31,4.19,27.55,12.14l-9.12,12.43c-5.36-5.26-11.8-8.48-18.57-8.48-12.63,0-24.67,11.21-24.67,25,0,14,12.48,24.82,24.62,24.82,7.21,0,13.45-3.85,18.67-9l9.07,12.77c-6.92,6.88-15.36,12-27.25,12C270.63,108.36,252.2,89.69,252.2,67.6Z"/><path d="M322.66,67.65a40.88,40.88,0,1,1,40.81,40.71A41,41,0,0,1,322.66,67.65Zm65.77-.09a24.92,24.92,0,1,0-25,24.81A25,25,0,0,0,388.43,67.56Z"/><path d="M411.25,67.65a40.88,40.88,0,1,1,40.81,40.71A41,41,0,0,1,411.25,67.65ZM477,67.56a24.92,24.92,0,1,0-25,24.81A25,25,0,0,0,477,67.56Z"/><path d="M549.08,43.91H529.77v62.94H513.93V43.91H494.57V28.26h54.51Z"/><path class="cls-2" d="M585.5,43.91H555.22V28.26h55.29L580.24,91.15h30.27v15.7H555.22Z"/><path class="cls-2" d="M669.17,95.88H637.72l-5,11H615.63l37.54-80.54h.49l37.59,80.54H674.14ZM663,82.43l-9.55-21-9.61,21Z"/><path d="M221.59,144h2.84l1.39,17.11L233.69,144h3l1.63,17,7.43-17h2.85l-9.44,20.24h-3l-1.83-16.29-7.72,16.29-3,0Z"/><path d="M254.78,164.46c-4.53,0-7.35-3.19-6.45-8.24S253,148,257.65,148s7.09,3.25,6.33,7.55a10.23,10.23,0,0,1-.38,1.57H250.89c-.41,3.25,1.54,5.08,4.29,5.08a5.35,5.35,0,0,0,5-2.94H263A8.84,8.84,0,0,1,254.78,164.46Zm-3.55-9.23h10.08c.58-3.25-1.42-5-4.15-5A6.19,6.19,0,0,0,251.23,155.23Z"/><path d="M299.15,155.2c.55-3.25-.87-4.91-3.49-4.91s-4.61,1.57-5.31,4.71l-1.66,9.2h-2.61l1.6-9c.58-3.25-.84-4.91-3.49-4.91s-4.82,1.72-5.4,5.14v-.06l-1.56,8.83h-2.65l2.82-15.91H280l-.4,2.29a7,7,0,0,1,5.48-2.58c2.62,0,4.59,1.19,5.2,3.54a7.29,7.29,0,0,1,6.27-3.54c3.6,0,6,2.26,5.23,6.82l-1.66,9.38h-2.61Z"/><path d="M311.49,164.46c-4,0-6.73-2.64-6.73-6.62a9.55,9.55,0,0,1,9.58-9.81c4,0,6.82,2.61,6.82,6.65A9.6,9.6,0,0,1,311.49,164.46Zm.32-2.23c3.86,0,6.62-3.52,6.62-7.41a4.22,4.22,0,0,0-4.47-4.56c-3.89,0-6.48,3.52-6.48,7.47A4.13,4.13,0,0,0,311.81,162.23Z"/><path d="M326.85,148.29l2.59,13.41,7.32-13.41h2.84l-9.06,15.91h-3.1L324,148.29Z"/><path d="M346.22,164.46c-4.53,0-7.34-3.19-6.44-8.24s4.7-8.19,9.32-8.19,7.08,3.25,6.33,7.55a10.23,10.23,0,0,1-.38,1.57H342.33c-.4,3.25,1.54,5.08,4.3,5.08a5.36,5.36,0,0,0,5-2.94h2.84A8.86,8.86,0,0,1,346.22,164.46Zm-3.54-9.23h10.08c.58-3.25-1.43-5-4.16-5A6.18,6.18,0,0,0,342.68,155.23Z"/><path d="M371.63,164.46c-3.45,0-6-1.91-5.66-4.93h2.59c-.15,1.62,1,2.81,3.22,2.81s3.63-.84,3.63-2.38c0-3.25-8.05-2.18-8.05-7.37,0-2.73,2.53-4.56,6.07-4.56s5.93,2,5.55,5h-2.53c.21-1.74-1.13-2.87-3.19-2.87-1.89,0-3.25.9-3.25,2.35,0,3.43,8,2.38,8,7.38C378,162.72,375.29,164.46,371.63,164.46Z"/><path d="M388.19,164.46c-4,0-6.74-2.64-6.74-6.62A9.55,9.55,0,0,1,391,148c4,0,6.82,2.61,6.82,6.65A9.59,9.59,0,0,1,388.19,164.46Zm.32-2.23c3.86,0,6.62-3.52,6.62-7.41a4.23,4.23,0,0,0-4.48-4.56c-3.89,0-6.47,3.52-6.47,7.47A4.13,4.13,0,0,0,388.51,162.23Z"/><path d="M409.35,148.29h2.94l2.7,12.83,7.23-12.83H425l-13.71,23.4h-2.76L413,164Z"/><path d="M431.77,164.46c-4,0-6.73-2.64-6.73-6.62a9.55,9.55,0,0,1,9.58-9.81c4,0,6.82,2.61,6.82,6.65A9.6,9.6,0,0,1,431.77,164.46Zm.32-2.23c3.87,0,6.62-3.52,6.62-7.41a4.22,4.22,0,0,0-4.47-4.56c-3.89,0-6.47,3.52-6.47,7.47A4.13,4.13,0,0,0,432.09,162.23Z"/><path d="M457.47,164.2h-2.64l.41-2.32a7.1,7.1,0,0,1-5.52,2.55c-3.66,0-6.13-2.26-5.34-6.82l1.65-9.32h2.62l-1.57,9c-.55,3.22.9,4.88,3.57,4.88s4.88-1.68,5.43-5.11v.09l1.57-8.83h2.64Z"/><path d="M480.07,148a5.67,5.67,0,0,1,5.34,3.1l1.48-8.42h2.67l-3.8,21.49h-2.67l.55-3a8,8,0,0,1-6.51,3.25c-4.27,0-7-3.34-6.12-8.27S475.74,148,480.07,148Zm.08,2.29a6.65,6.65,0,0,0-6.41,5.87c-.67,3.74,1.42,5.95,4.32,5.95a6.76,6.76,0,0,0,6.45-5.92C485.18,152.53,483.06,150.32,480.15,150.32Z"/><path d="M497.23,164.46c-4,0-6.74-2.64-6.74-6.62a9.55,9.55,0,0,1,9.59-9.81c4,0,6.82,2.61,6.82,6.65A9.6,9.6,0,0,1,497.23,164.46Zm.32-2.23c3.86,0,6.62-3.52,6.62-7.41a4.22,4.22,0,0,0-4.47-4.56c-3.89,0-6.48,3.52-6.48,7.47A4.13,4.13,0,0,0,497.55,162.23Z"/><path d="M522.06,155.2c.55-3.25-.9-4.91-3.57-4.91S513.64,152,513,155.4v-.06l-1.57,8.86h-2.64l2.81-15.91h2.65l-.41,2.29a7.1,7.1,0,0,1,5.57-2.58c3.66,0,6.1,2.26,5.29,6.82l-1.66,9.38h-2.61Z"/><path d="M530.28,141.09h2.55l-1.36,5.78h-1.83Z"/><path d="M535,150.47h-2l.38-2.18h2.06l.69-4h2.68l-.7,4h4.12l-.38,2.18h-4.15L536,159.85c-.29,1.56.2,2.11,1.83,2.11h1.94l-.4,2.24H537c-2.81,0-4.21-1.16-3.65-4.35Z"/><path d="M555.05,142.71h2.64l-1.39,7.87A7.34,7.34,0,0,1,562,148c3.54,0,6,2.26,5.14,6.82l-1.66,9.38h-2.61l1.6-9c.55-3.25-.9-4.91-3.58-4.91s-4.85,1.69-5.45,5.11v-.06l-1.57,8.86h-2.65Z"/><path d="M579.27,148c3,0,4.7,1.51,5.34,3.16l.52-2.9h2.67L585,164.2h-2.67l.55-3a8.2,8.2,0,0,1-6.54,3.22c-4.24,0-7-3.34-6.09-8.27S575,148,579.27,148Zm.11,2.29a6.64,6.64,0,0,0-6.41,5.87c-.67,3.74,1.42,5.95,4.32,5.95a6.76,6.76,0,0,0,6.45-5.92C584.41,152.53,582.29,150.32,579.38,150.32Z"/><path d="M593.24,148.29l2.58,13.41,7.32-13.41H606l-9.06,15.91h-3.1l-3.43-15.91Z"/><path d="M612.6,164.46c-4.53,0-7.34-3.19-6.44-8.24s4.7-8.19,9.32-8.19,7.08,3.25,6.33,7.55a10.23,10.23,0,0,1-.38,1.57H608.71c-.4,3.25,1.54,5.08,4.3,5.08a5.36,5.36,0,0,0,5-2.94h2.84A8.85,8.85,0,0,1,612.6,164.46Zm-3.54-9.23h10.08c.58-3.25-1.42-5-4.15-5A6.18,6.18,0,0,0,609.06,155.23Z"/><path d="M635.4,150.47h-2l.38-2.18h2.06l.7-4h2.67l-.7,4h4.12l-.37,2.18h-4.16l-1.65,9.38c-.29,1.56.2,2.11,1.83,2.11h1.94l-.4,2.24H637.4c-2.81,0-4.21-1.16-3.65-4.35Z"/><path d="M650,164.46c-4,0-6.74-2.64-6.74-6.62a9.55,9.55,0,0,1,9.58-9.81c4,0,6.83,2.61,6.83,6.65A9.6,9.6,0,0,1,650,164.46Zm.32-2.23c3.86,0,6.62-3.52,6.62-7.41a4.22,4.22,0,0,0-4.47-4.56c-3.89,0-6.48,3.52-6.48,7.47A4.13,4.13,0,0,0,650.3,162.23Z"/></g></g></svg>